<svg width="28" height="29" viewBox="0 0 28 29" fill="none" xmlns="http://www.w3.org/2000/svg">
<path d="M23.3333 14.6136V8.83258H25.6666V15.7698H23.3333M23.3333 20.3947H25.6666V18.0822H23.3333M11.6666 15.7698C14.7816 15.7698 21 17.3191 21 20.3947V23.8633H2.33331V20.3947C2.33331 17.3191 8.55165 15.7698 11.6666 15.7698ZM11.6666 5.36395C12.9043 5.36395 14.0913 5.85121 14.9665 6.71853C15.8416 7.58586 16.3333 8.7622 16.3333 9.98878C16.3333 11.2154 15.8416 12.3917 14.9665 13.259C14.0913 14.1264 12.9043 14.6136 11.6666 14.6136C10.429 14.6136 9.24198 14.1264 8.36682 13.259C7.49164 12.3917 6.99998 11.2154 6.99998 9.98878C6.99998 8.7622 7.49164 7.58586 8.36682 6.71853C9.24198 5.85121 10.429 5.36395 11.6666 5.36395ZM11.6666 17.9666C8.20165 17.9666 4.54998 19.6547 4.54998 20.3947V21.6665H18.7833V20.3947C18.7833 19.6547 15.1316 17.9666 11.6666 17.9666ZM11.6666 7.56075C11.0169 7.56075 10.3937 7.81656 9.93424 8.2719C9.47477 8.72725 9.21665 9.34483 9.21665 9.98878C9.21665 10.6327 9.47477 11.2503 9.93424 11.7057C10.3937 12.161 11.0169 12.4168 11.6666 12.4168C12.3164 12.4168 12.9396 12.161 13.3991 11.7057C13.8585 11.2503 14.1166 10.6327 14.1166 9.98878C14.1166 9.34483 13.8585 8.72725 13.3991 8.2719C12.9396 7.81656 12.3164 7.56075 11.6666 7.56075Z" fill="black"/>
</svg>
