<svg width="28" height="29" viewBox="0 0 28 29" fill="none" xmlns="http://www.w3.org/2000/svg">
<path d="M25.2355 19.7597H8.95234L9.76991 18.1094L23.3543 18.085C23.8137 18.085 24.2074 17.7598 24.2894 17.31L26.1707 6.87427C26.2199 6.60057 26.1461 6.31875 25.9656 6.10467C25.8764 5.99931 25.7652 5.91444 25.6396 5.85595C25.514 5.79746 25.377 5.76674 25.2383 5.76594L7.95702 5.70903L7.80937 5.02072C7.7164 4.58173 7.31718 4.26196 6.86328 4.26196H2.63867C2.38267 4.26196 2.13716 4.36275 1.95614 4.54214C1.77513 4.72153 1.67343 4.96484 1.67343 5.21854C1.67343 5.47225 1.77513 5.71556 1.95614 5.89495C2.13716 6.07434 2.38267 6.17513 2.63867 6.17513H6.08124L6.72656 9.21559L8.31523 16.8384L6.26992 20.1472C6.1637 20.2893 6.09972 20.4579 6.08523 20.6342C6.07073 20.8104 6.10629 20.9872 6.18788 21.1444C6.35195 21.4669 6.68281 21.6701 7.04921 21.6701H8.7664C8.40032 22.152 8.20258 22.7389 8.20312 23.3421C8.20312 24.8759 9.46093 26.1224 11.0086 26.1224C12.5562 26.1224 13.8141 24.8759 13.8141 23.3421C13.8141 22.7378 13.6117 22.1498 13.2508 21.6701H17.6559C17.2898 22.152 17.092 22.7389 17.0926 23.3421C17.0926 24.8759 18.3504 26.1224 19.898 26.1224C21.4457 26.1224 22.7035 24.8759 22.7035 23.3421C22.7035 22.7378 22.5012 22.1498 22.1402 21.6701H25.2383C25.7687 21.6701 26.2035 21.242 26.2035 20.7135C26.2019 20.4601 26.0993 20.2176 25.9179 20.0389C25.7366 19.8602 25.4913 19.7598 25.2355 19.7597ZM8.35898 7.59509L24.1035 7.64658L22.5613 16.2043L10.1937 16.226L8.35898 7.59509ZM11.0086 24.1984C10.5328 24.1984 10.1445 23.8136 10.1445 23.3421C10.1445 22.8706 10.5328 22.4858 11.0086 22.4858C11.4844 22.4858 11.8726 22.8706 11.8726 23.3421C11.8726 23.5692 11.7816 23.787 11.6196 23.9476C11.4575 24.1082 11.2378 24.1984 11.0086 24.1984ZM19.898 24.1984C19.4223 24.1984 19.034 23.8136 19.034 23.3421C19.034 22.8706 19.4223 22.4858 19.898 22.4858C20.3738 22.4858 20.7621 22.8706 20.7621 23.3421C20.7621 23.5692 20.6711 23.787 20.509 23.9476C20.347 24.1082 20.1272 24.1984 19.898 24.1984Z" fill="black"/>
</svg>
